<?xml version="1.0" encoding="UTF-8" standalone="no"?>
<!DOCTYPE svg PUBLIC "-//W3C//DTD SVG 1.1//EN"
 "http://www.w3.org/Graphics/SVG/1.1/DTD/svg11.dtd">
<!-- Generated by graphviz version 14.1.5 (20260411.2331)
 -->
<!-- Pages: 1 -->
<svg width="3179pt" height="476pt"
 viewBox="0.00 0.00 3179.00 476.00" xmlns="http://www.w3.org/2000/svg" xmlns:xlink="http://www.w3.org/1999/xlink">
<g id="graph0" class="graph" transform="scale(1 1) rotate(0) translate(4 472)">
<polygon fill="white" stroke="none" points="-4,4 -4,-472 3174.64,-472 3174.64,4 -4,4"/>
<!-- [root] kubernetes_namespace.simxstudio (expand) -->
<g id="node1" class="node">
<title>[root] kubernetes_namespace.simxstudio (expand)</title>
<polygon fill="none" stroke="black" points="2547.2,-108 2342.2,-108 2342.2,-72 2547.2,-72 2547.2,-108"/>
<text xml:space="preserve" text-anchor="middle" x="2444.7" y="-84.95" font-family="Times,serif" font-size="14.00">kubernetes_namespace.simxstudio</text>
</g>
<!-- [root] provider[&quot;registry.terraform.io/hashicorp/kubernetes&quot;] -->
<g id="node11" class="node">
<title>[root] provider[&quot;registry.terraform.io/hashicorp/kubernetes&quot;]</title>
<polygon fill="none" stroke="black" points="2444.7,-36 2144.08,-18 2444.7,0 2745.32,-18 2444.7,-36"/>
<text xml:space="preserve" text-anchor="middle" x="2444.7" y="-12.95" font-family="Times,serif" font-size="14.00">provider[&quot;registry.terraform.io/hashicorp/kubernetes&quot;]</text>
</g>
<!-- [root] kubernetes_namespace.simxstudio (expand)&#45;&gt;[root] provider[&quot;registry.terraform.io/hashicorp/kubernetes&quot;] -->
<g id="edge1" class="edge">
<title>[root] kubernetes_namespace.simxstudio (expand)&#45;&gt;[root] provider[&quot;registry.terraform.io/hashicorp/kubernetes&quot;]</title>
<path fill="none" stroke="black" d="M2444.7,-71.7C2444.7,-64.41 2444.7,-55.73 2444.7,-47.54"/>
<polygon fill="black" stroke="black" points="2448.2,-47.62 2444.7,-37.62 2441.2,-47.62 2448.2,-47.62"/>
</g>
<!-- [root] module.simxstudio.helm_release.redis (expand) -->
<g id="node2" class="node">
<title>[root] module.simxstudio.helm_release.redis (expand)</title>
<polygon fill="none" stroke="black" points="2848.07,-324 2621.32,-324 2621.32,-288 2848.07,-288 2848.07,-324"/>
<text xml:space="preserve" text-anchor="middle" x="2734.7" y="-300.95" font-family="Times,serif" font-size="14.00">module.simxstudio.helm_release.redis</text>
</g>
<!-- [root] provider[&quot;registry.terraform.io/hashicorp/helm&quot;] -->
<g id="node10" class="node">
<title>[root] provider[&quot;registry.terraform.io/hashicorp/helm&quot;]</title>
<polygon fill="none" stroke="black" points="2899.7,-252 2628.75,-234 2899.7,-216 3170.64,-234 2899.7,-252"/>
<text xml:space="preserve" text-anchor="middle" x="2899.7" y="-228.95" font-family="Times,serif" font-size="14.00">provider[&quot;registry.terraform.io/hashicorp/helm&quot;]</text>
</g>
<!-- [root] module.simxstudio.helm_release.redis (expand)&#45;&gt;[root] provider[&quot;registry.terraform.io/hashicorp/helm&quot;] -->
<g id="edge9" class="edge">
<title>[root] module.simxstudio.helm_release.redis (expand)&#45;&gt;[root] provider[&quot;registry.terraform.io/hashicorp/helm&quot;]</title>
<path fill="none" stroke="black" d="M2775.91,-287.52C2799.52,-277.5 2829.22,-264.9 2853.6,-254.55"/>
<polygon fill="black" stroke="black" points="2854.81,-257.84 2862.65,-250.72 2852.08,-251.4 2854.81,-257.84"/>
</g>
<!-- [root] module.simxstudio.var.namespace (expand) -->
<g id="node14" class="node">
<title>[root] module.simxstudio.var.namespace (expand)</title>
<ellipse fill="none" stroke="black" cx="2444.7" cy="-162" rx="198.75" ry="18"/>
<text xml:space="preserve" text-anchor="middle" x="2444.7" y="-156.95" font-family="Times,serif" font-size="14.00">[root] module.simxstudio.var.namespace (expand)</text>
</g>
<!-- [root] module.simxstudio.helm_release.redis (expand)&#45;&gt;[root] module.simxstudio.var.namespace (expand) -->
<g id="edge8" class="edge">
<title>[root] module.simxstudio.helm_release.redis (expand)&#45;&gt;[root] module.simxstudio.var.namespace (expand)</title>
<path fill="none" stroke="black" d="M2688.08,-287.61C2666.41,-278.52 2640.81,-266.3 2619.7,-252 2600.43,-238.96 2601.36,-228.43 2581.7,-216 2560.58,-202.65 2535.55,-191.75 2512.71,-183.39"/>
<polygon fill="black" stroke="black" points="2514.07,-180.16 2503.47,-180.11 2511.73,-186.75 2514.07,-180.16"/>
</g>
<!-- [root] module.simxstudio.kubernetes_deployment.apps (expand) -->
<g id="node3" class="node">
<title>[root] module.simxstudio.kubernetes_deployment.apps (expand)</title>
<polygon fill="none" stroke="black" points="2015.2,-252 1732.2,-252 1732.2,-216 2015.2,-216 2015.2,-252"/>
<text xml:space="preserve" text-anchor="middle" x="1873.7" y="-228.95" font-family="Times,serif" font-size="14.00">module.simxstudio.kubernetes_deployment.apps</text>
</g>
<!-- [root] module.simxstudio.kubernetes_deployment.apps (expand)&#45;&gt;[root] module.simxstudio.var.namespace (expand) -->
<g id="edge15" class="edge">
<title>[root] module.simxstudio.kubernetes_deployment.apps (expand)&#45;&gt;[root] module.simxstudio.var.namespace (expand)</title>
<path fill="none" stroke="black" d="M2015.58,-215.61C2108.54,-204.21 2228.98,-189.45 2318.59,-178.46"/>
<polygon fill="black" stroke="black" points="2318.91,-181.95 2328.41,-177.26 2318.06,-175 2318.91,-181.95"/>
</g>
<!-- [root] module.simxstudio.var.apps (expand) -->
<g id="node15" class="node">
<title>[root] module.simxstudio.var.apps (expand)</title>
<ellipse fill="none" stroke="black" cx="2835.7" cy="-162" rx="174.7" ry="18"/>
<text xml:space="preserve" text-anchor="middle" x="2835.7" y="-156.95" font-family="Times,serif" font-size="14.00">[root] module.simxstudio.var.apps (expand)</text>
</g>
<!-- [root] module.simxstudio.kubernetes_deployment.apps (expand)&#45;&gt;[root] module.simxstudio.var.apps (expand) -->
<g id="edge10" class="edge">
<title>[root] module.simxstudio.kubernetes_deployment.apps (expand)&#45;&gt;[root] module.simxstudio.var.apps (expand)</title>
<path fill="none" stroke="black" d="M2015.4,-216.73C2018.19,-216.48 2020.95,-216.23 2023.7,-216 2302.7,-192.22 2373.47,-200.95 2652.7,-180 2668.34,-178.83 2684.72,-177.48 2700.98,-176.06"/>
<polygon fill="black" stroke="black" points="2701.05,-179.57 2710.7,-175.21 2700.43,-172.6 2701.05,-179.57"/>
</g>
<!-- [root] module.simxstudio.var.mysql_database (expand) -->
<g id="node16" class="node">
<title>[root] module.simxstudio.var.mysql_database (expand)</title>
<ellipse fill="none" stroke="black" cx="1592.7" cy="-162" rx="217.18" ry="18"/>
<text xml:space="preserve" text-anchor="middle" x="1592.7" y="-156.95" font-family="Times,serif" font-size="14.00">[root] module.simxstudio.var.mysql_database (expand)</text>
</g>
<!-- [root] module.simxstudio.kubernetes_deployment.apps (expand)&#45;&gt;[root] module.simxstudio.var.mysql_database (expand) -->
<g id="edge11" class="edge">
<title>[root] module.simxstudio.kubernetes_deployment.apps (expand)&#45;&gt;[root] module.simxstudio.var.mysql_database (expand)</title>
<path fill="none" stroke="black" d="M1803.51,-215.52C1762.92,-205.41 1711.79,-192.67 1670.04,-182.27"/>
<polygon fill="black" stroke="black" points="1671.11,-178.93 1660.56,-179.91 1669.42,-185.72 1671.11,-178.93"/>
</g>
<!-- [root] module.simxstudio.var.mysql_password (expand) -->
<g id="node17" class="node">
<title>[root] module.simxstudio.var.mysql_password (expand)</title>
<ellipse fill="none" stroke="black" cx="717.7" cy="-162" rx="220.25" ry="18"/>
<text xml:space="preserve" text-anchor="middle" x="717.7" y="-156.95" font-family="Times,serif" font-size="14.00">[root] module.simxstudio.var.mysql_password (expand)</text>
</g>
<!-- [root] module.simxstudio.kubernetes_deployment.apps (expand)&#45;&gt;[root] module.simxstudio.var.mysql_password (expand) -->
<g id="edge12" class="edge">
<title>[root] module.simxstudio.kubernetes_deployment.apps (expand)&#45;&gt;[root] module.simxstudio.var.mysql_password (expand)</title>
<path fill="none" stroke="black" d="M1731.86,-216.76C1728.78,-216.49 1725.72,-216.24 1722.7,-216 1378.52,-188.67 1291.33,-200.78 946.7,-180 926.54,-178.78 905.4,-177.38 884.45,-175.92"/>
<polygon fill="black" stroke="black" points="884.91,-172.44 874.69,-175.23 884.42,-179.43 884.91,-172.44"/>
</g>
<!-- [root] module.simxstudio.var.mysql_port (expand) -->
<g id="node18" class="node">
<title>[root] module.simxstudio.var.mysql_port (expand)</title>
<ellipse fill="none" stroke="black" cx="2027.7" cy="-162" rx="200.29" ry="18"/>
<text xml:space="preserve" text-anchor="middle" x="2027.7" y="-156.95" font-family="Times,serif" font-size="14.00">[root] module.simxstudio.var.mysql_port (expand)</text>
</g>
<!-- [root] module.simxstudio.kubernetes_deployment.apps (expand)&#45;&gt;[root] module.simxstudio.var.mysql_port (expand) -->
<g id="edge13" class="edge">
<title>[root] module.simxstudio.kubernetes_deployment.apps (expand)&#45;&gt;[root] module.simxstudio.var.mysql_port (expand)</title>
<path fill="none" stroke="black" d="M1912.16,-215.52C1932.6,-206.22 1957.93,-194.71 1979.65,-184.84"/>
<polygon fill="black" stroke="black" points="1980.96,-188.09 1988.61,-180.77 1978.06,-181.72 1980.96,-188.09"/>
</g>
<!-- [root] module.simxstudio.var.mysql_user (expand) -->
<g id="node19" class="node">
<title>[root] module.simxstudio.var.mysql_user (expand)</title>
<ellipse fill="none" stroke="black" cx="1156.7" cy="-162" rx="200.8" ry="18"/>
<text xml:space="preserve" text-anchor="middle" x="1156.7" y="-156.95" font-family="Times,serif" font-size="14.00">[root] module.simxstudio.var.mysql_user (expand)</text>
</g>
<!-- [root] module.simxstudio.kubernetes_deployment.apps (expand)&#45;&gt;[root] module.simxstudio.var.mysql_user (expand) -->
<g id="edge14" class="edge">
<title>[root] module.simxstudio.kubernetes_deployment.apps (expand)&#45;&gt;[root] module.simxstudio.var.mysql_user (expand)</title>
<path fill="none" stroke="black" d="M1731.84,-216.95C1728.77,-216.63 1725.71,-216.31 1722.7,-216 1581.96,-201.49 1421.37,-186.61 1307.28,-176.33"/>
<polygon fill="black" stroke="black" points="1307.82,-172.86 1297.55,-175.45 1307.19,-179.83 1307.82,-172.86"/>
</g>
<!-- [root] module.simxstudio.kubernetes_deployment.apps[&quot;admin&quot;] -->
<g id="node4" class="node">
<title>[root] module.simxstudio.kubernetes_deployment.apps[&quot;admin&quot;]</title>
<polygon fill="none" stroke="black" points="2257.2,-324 1974.2,-324 1974.2,-288 2257.2,-288 2257.2,-324"/>
<text xml:space="preserve" text-anchor="middle" x="2115.7" y="-300.95" font-family="Times,serif" font-size="14.00">module.simxstudio.kubernetes_deployment.apps</text>
</g>
<!-- [root] module.simxstudio.kubernetes_deployment.apps[&quot;admin&quot;]&#45;&gt;[root] module.simxstudio.kubernetes_deployment.apps (expand) -->
<g id="edge16" class="edge">
<title>[root] module.simxstudio.kubernetes_deployment.apps[&quot;admin&quot;]&#45;&gt;[root] module.simxstudio.kubernetes_deployment.apps (expand)</title>
<path fill="none" stroke="black" d="M2055.25,-287.52C2021.63,-277.79 1979.61,-265.64 1944.46,-255.47"/>
<polygon fill="black" stroke="black" points="1945.82,-252.22 1935.24,-252.8 1943.88,-258.94 1945.82,-252.22"/>
</g>
<!-- [root] module.simxstudio.kubernetes_deployment.apps[&quot;api&quot;] -->
<g id="node5" class="node">
<title>[root] module.simxstudio.kubernetes_deployment.apps[&quot;api&quot;]</title>
<polygon fill="none" stroke="black" points="1879.2,-324 1596.2,-324 1596.2,-288 1879.2,-288 1879.2,-324"/>
<text xml:space="preserve" text-anchor="middle" x="1737.7" y="-300.95" font-family="Times,serif" font-size="14.00">module.simxstudio.kubernetes_deployment.apps</text>
</g>
<!-- [root] module.simxstudio.kubernetes_deployment.apps[&quot;api&quot;]&#45;&gt;[root] module.simxstudio.kubernetes_deployment.apps (expand) -->
<g id="edge17" class="edge">
<title>[root] module.simxstudio.kubernetes_deployment.apps[&quot;api&quot;]&#45;&gt;[root] module.simxstudio.kubernetes_deployment.apps (expand)</title>
<path fill="none" stroke="black" d="M1771.66,-287.52C1789.32,-278.43 1811.11,-267.22 1830,-257.49"/>
<polygon fill="black" stroke="black" points="1831.53,-260.64 1838.82,-252.95 1828.32,-254.42 1831.53,-260.64"/>
</g>
<!-- [root] module.simxstudio.kubernetes_deployment.mysql (expand) -->
<g id="node6" class="node">
<title>[root] module.simxstudio.kubernetes_deployment.mysql (expand)</title>
<polygon fill="none" stroke="black" points="1713.7,-252 1421.7,-252 1421.7,-216 1713.7,-216 1713.7,-252"/>
<text xml:space="preserve" text-anchor="middle" x="1567.7" y="-228.95" font-family="Times,serif" font-size="14.00">module.simxstudio.kubernetes_deployment.mysql</text>
</g>
<!-- [root] module.simxstudio.kubernetes_deployment.mysql (expand)&#45;&gt;[root] module.simxstudio.var.namespace (expand) -->
<g id="edge23" class="edge">
<title>[root] module.simxstudio.kubernetes_deployment.mysql (expand)&#45;&gt;[root] module.simxstudio.var.namespace (expand)</title>
<path fill="none" stroke="black" d="M1713.83,-216.9C1717.15,-216.59 1720.44,-216.29 1723.7,-216 1951.35,-195.62 2008.79,-197.31 2236.7,-180 2254.2,-178.67 2272.53,-177.24 2290.74,-175.78"/>
<polygon fill="black" stroke="black" points="2290.86,-179.28 2300.55,-175 2290.3,-172.31 2290.86,-179.28"/>
</g>
<!-- [root] module.simxstudio.kubernetes_deployment.mysql (expand)&#45;&gt;[root] module.simxstudio.var.mysql_database (expand) -->
<g id="edge18" class="edge">
<title>[root] module.simxstudio.kubernetes_deployment.mysql (expand)&#45;&gt;[root] module.simxstudio.var.mysql_database (expand)</title>
<path fill="none" stroke="black" d="M1573.88,-215.7C1576.57,-208.15 1579.8,-199.12 1582.81,-190.68"/>
<polygon fill="black" stroke="black" points="1586.01,-192.12 1586.08,-181.53 1579.42,-189.77 1586.01,-192.12"/>
</g>
<!-- [root] module.simxstudio.kubernetes_deployment.mysql (expand)&#45;&gt;[root] module.simxstudio.var.mysql_password (expand) -->
<g id="edge19" class="edge">
<title>[root] module.simxstudio.kubernetes_deployment.mysql (expand)&#45;&gt;[root] module.simxstudio.var.mysql_password (expand)</title>
<path fill="none" stroke="black" d="M1421.58,-220.97C1270.93,-208.56 1036.58,-189.26 880.18,-176.38"/>
<polygon fill="black" stroke="black" points="880.82,-172.92 870.57,-175.59 880.25,-179.9 880.82,-172.92"/>
</g>
<!-- [root] module.simxstudio.kubernetes_deployment.mysql (expand)&#45;&gt;[root] module.simxstudio.var.mysql_port (expand) -->
<g id="edge20" class="edge">
<title>[root] module.simxstudio.kubernetes_deployment.mysql (expand)&#45;&gt;[root] module.simxstudio.var.mysql_port (expand)</title>
<path fill="none" stroke="black" d="M1682.59,-215.52C1754.45,-204.58 1846.52,-190.57 1917.48,-179.77"/>
<polygon fill="black" stroke="black" points="1917.82,-183.26 1927.18,-178.3 1916.77,-176.34 1917.82,-183.26"/>
</g>
<!-- [root] module.simxstudio.kubernetes_deployment.mysql (expand)&#45;&gt;[root] module.simxstudio.var.mysql_user (expand) -->
<g id="edge22" class="edge">
<title>[root] module.simxstudio.kubernetes_deployment.mysql (expand)&#45;&gt;[root] module.simxstudio.var.mysql_user (expand)</title>
<path fill="none" stroke="black" d="M1465.04,-215.52C1402.02,-204.78 1321.6,-191.09 1258.69,-180.37"/>
<polygon fill="black" stroke="black" points="1259.5,-176.96 1249.05,-178.73 1258.32,-183.86 1259.5,-176.96"/>
</g>
<!-- [root] module.simxstudio.var.mysql_root_password (expand) -->
<g id="node20" class="node">
<title>[root] module.simxstudio.var.mysql_root_password (expand)</title>
<ellipse fill="none" stroke="black" cx="239.7" cy="-162" rx="239.7" ry="18"/>
<text xml:space="preserve" text-anchor="middle" x="239.7" y="-156.95" font-family="Times,serif" font-size="14.00">[root] module.simxstudio.var.mysql_root_password (expand)</text>
</g>
<!-- [root] module.simxstudio.kubernetes_deployment.mysql (expand)&#45;&gt;[root] module.simxstudio.var.mysql_root_password (expand) -->
<g id="edge21" class="edge">
<title>[root] module.simxstudio.kubernetes_deployment.mysql (expand)&#45;&gt;[root] module.simxstudio.var.mysql_root_password (expand)</title>
<path fill="none" stroke="black" d="M1421.49,-226.7C1213.99,-217.57 822.2,-199.57 488.7,-180 466.86,-178.72 443.96,-177.28 421.26,-175.8"/>
<polygon fill="black" stroke="black" points="421.5,-172.31 411.29,-175.15 421.04,-179.29 421.5,-172.31"/>
</g>
<!-- [root] module.simxstudio.kubernetes_ingress_v1.ingress (expand) -->
<g id="node7" class="node">
<title>[root] module.simxstudio.kubernetes_ingress_v1.ingress (expand)</title>
<polygon fill="none" stroke="black" points="2565.95,-324 2275.45,-324 2275.45,-288 2565.95,-288 2565.95,-324"/>
<text xml:space="preserve" text-anchor="middle" x="2420.7" y="-300.95" font-family="Times,serif" font-size="14.00">module.simxstudio.kubernetes_ingress_v1.ingress</text>
</g>
<!-- [root] module.simxstudio.kubernetes_service.apps (expand) -->
<g id="node8" class="node">
<title>[root] module.simxstudio.kubernetes_service.apps (expand)</title>
<polygon fill="none" stroke="black" points="2573.07,-252 2316.32,-252 2316.32,-216 2573.07,-216 2573.07,-252"/>
<text xml:space="preserve" text-anchor="middle" x="2444.7" y="-228.95" font-family="Times,serif" font-size="14.00">module.simxstudio.kubernetes_service.apps</text>
</g>
<!-- [root] module.simxstudio.kubernetes_ingress_v1.ingress (expand)&#45;&gt;[root] module.simxstudio.kubernetes_service.apps (expand) -->
<g id="edge24" class="edge">
<title>[root] module.simxstudio.kubernetes_ingress_v1.ingress (expand)&#45;&gt;[root] module.simxstudio.kubernetes_service.apps (expand)</title>
<path fill="none" stroke="black" d="M2426.63,-287.7C2429.19,-280.24 2432.24,-271.32 2435.11,-262.97"/>
<polygon fill="black" stroke="black" points="2438.41,-264.13 2438.34,-253.54 2431.79,-261.86 2438.41,-264.13"/>
</g>
<!-- [root] module.simxstudio.kubernetes_service.apps (expand)&#45;&gt;[root] module.simxstudio.var.namespace (expand) -->
<g id="edge26" class="edge">
<title>[root] module.simxstudio.kubernetes_service.apps (expand)&#45;&gt;[root] module.simxstudio.var.namespace (expand)</title>
<path fill="none" stroke="black" d="M2444.7,-215.7C2444.7,-208.41 2444.7,-199.73 2444.7,-191.54"/>
<polygon fill="black" stroke="black" points="2448.2,-191.62 2444.7,-181.62 2441.2,-191.62 2448.2,-191.62"/>
</g>
<!-- [root] module.simxstudio.kubernetes_service.apps (expand)&#45;&gt;[root] module.simxstudio.var.apps (expand) -->
<g id="edge25" class="edge">
<title>[root] module.simxstudio.kubernetes_service.apps (expand)&#45;&gt;[root] module.simxstudio.var.apps (expand)</title>
<path fill="none" stroke="black" d="M2542.35,-215.52C2602.72,-204.71 2679.86,-190.9 2739.88,-180.15"/>
<polygon fill="black" stroke="black" points="2740.17,-183.66 2749.39,-178.45 2738.93,-176.77 2740.17,-183.66"/>
</g>
<!-- [root] module.simxstudio.kubernetes_service.mysql (expand) -->
<g id="node9" class="node">
<title>[root] module.simxstudio.kubernetes_service.mysql (expand)</title>
<polygon fill="none" stroke="black" points="2298.57,-252 2032.82,-252 2032.82,-216 2298.57,-216 2298.57,-252"/>
<text xml:space="preserve" text-anchor="middle" x="2165.7" y="-228.95" font-family="Times,serif" font-size="14.00">module.simxstudio.kubernetes_service.mysql</text>
</g>
<!-- [root] module.simxstudio.kubernetes_service.mysql (expand)&#45;&gt;[root] module.simxstudio.var.namespace (expand) -->
<g id="edge28" class="edge">
<title>[root] module.simxstudio.kubernetes_service.mysql (expand)&#45;&gt;[root] module.simxstudio.var.namespace (expand)</title>
<path fill="none" stroke="black" d="M2235.38,-215.52C2275.74,-205.39 2326.61,-192.63 2368.09,-182.22"/>
<polygon fill="black" stroke="black" points="2368.94,-185.62 2377.78,-179.79 2367.23,-178.83 2368.94,-185.62"/>
</g>
<!-- [root] module.simxstudio.kubernetes_service.mysql (expand)&#45;&gt;[root] module.simxstudio.var.mysql_port (expand) -->
<g id="edge27" class="edge">
<title>[root] module.simxstudio.kubernetes_service.mysql (expand)&#45;&gt;[root] module.simxstudio.var.mysql_port (expand)</title>
<path fill="none" stroke="black" d="M2131.23,-215.52C2113.09,-206.32 2090.67,-194.94 2071.33,-185.13"/>
<polygon fill="black" stroke="black" points="2073.1,-182.11 2062.6,-180.7 2069.93,-188.35 2073.1,-182.11"/>
</g>
<!-- [root] var.apps -->
<g id="node12" class="node">
<title>[root] var.apps</title>
<polygon fill="none" stroke="black" points="2860.2,-108 2805.2,-108 2805.2,-72 2866.2,-72 2866.2,-102 2860.2,-108"/>
<polyline fill="none" stroke="black" points="2860.2,-108 2860.2,-102"/>
<polyline fill="none" stroke="black" points="2866.2,-102 2860.2,-102"/>
<text xml:space="preserve" text-anchor="middle" x="2835.7" y="-84.95" font-family="Times,serif" font-size="14.00">var.apps</text>
</g>
<!-- [root] module.simxstudio (close) -->
<g id="node13" class="node">
<title>[root] module.simxstudio (close)</title>
<ellipse fill="none" stroke="black" cx="2335.7" cy="-378" rx="133.75" ry="18"/>
<text xml:space="preserve" text-anchor="middle" x="2335.7" y="-372.95" font-family="Times,serif" font-size="14.00">[root] module.simxstudio (close)</text>
</g>
<!-- [root] module.simxstudio (close)&#45;&gt;[root] module.simxstudio.helm_release.redis (expand) -->
<g id="edge2" class="edge">
<title>[root] module.simxstudio (close)&#45;&gt;[root] module.simxstudio.helm_release.redis (expand)</title>
<path fill="none" stroke="black" d="M2415,-363.09C2474.73,-352.61 2557.37,-338.11 2623.66,-326.48"/>
<polygon fill="black" stroke="black" points="2624.26,-329.93 2633.5,-324.75 2623.05,-323.03 2624.26,-329.93"/>
</g>
<!-- [root] module.simxstudio (close)&#45;&gt;[root] module.simxstudio.kubernetes_deployment.apps[&quot;admin&quot;] -->
<g id="edge3" class="edge">
<title>[root] module.simxstudio (close)&#45;&gt;[root] module.simxstudio.kubernetes_deployment.apps[&quot;admin&quot;]</title>
<path fill="none" stroke="black" d="M2285.22,-360.94C2254.32,-351.11 2214.44,-338.42 2181.12,-327.82"/>
<polygon fill="black" stroke="black" points="2182.59,-324.61 2172,-324.91 2180.47,-331.28 2182.59,-324.61"/>
</g>
<!-- [root] module.simxstudio (close)&#45;&gt;[root] module.simxstudio.kubernetes_deployment.apps[&quot;api&quot;] -->
<g id="edge4" class="edge">
<title>[root] module.simxstudio (close)&#45;&gt;[root] module.simxstudio.kubernetes_deployment.apps[&quot;api&quot;]</title>
<path fill="none" stroke="black" d="M2237.28,-365.48C2143.13,-354.46 1999.72,-337.67 1890.66,-324.91"/>
<polygon fill="black" stroke="black" points="1891.39,-321.47 1881.05,-323.78 1890.58,-328.42 1891.39,-321.47"/>
</g>
<!-- [root] module.simxstudio (close)&#45;&gt;[root] module.simxstudio.kubernetes_deployment.mysql (expand) -->
<g id="edge5" class="edge">
<title>[root] module.simxstudio (close)&#45;&gt;[root] module.simxstudio.kubernetes_deployment.mysql (expand)</title>
<path fill="none" stroke="black" d="M2241.14,-364.93C2140.31,-351.82 1991.58,-331.72 1965.7,-324 1929.49,-313.2 1924.78,-299.18 1888.7,-288 1836.44,-271.81 1777.77,-260.28 1725.03,-252.21"/>
<polygon fill="black" stroke="black" points="1725.77,-248.78 1715.36,-250.76 1724.73,-255.7 1725.77,-248.78"/>
</g>
<!-- [root] module.simxstudio (close)&#45;&gt;[root] module.simxstudio.kubernetes_ingress_v1.ingress (expand) -->
<g id="edge6" class="edge">
<title>[root] module.simxstudio (close)&#45;&gt;[root] module.simxstudio.kubernetes_ingress_v1.ingress (expand)</title>
<path fill="none" stroke="black" d="M2356.27,-360.05C2366.66,-351.5 2379.46,-340.96 2390.9,-331.54"/>
<polygon fill="black" stroke="black" points="2393.06,-334.3 2398.55,-325.24 2388.61,-328.89 2393.06,-334.3"/>
</g>
<!-- [root] module.simxstudio (close)&#45;&gt;[root] module.simxstudio.kubernetes_service.mysql (expand) -->
<g id="edge7" class="edge">
<title>[root] module.simxstudio (close)&#45;&gt;[root] module.simxstudio.kubernetes_service.mysql (expand)</title>
<path fill="none" stroke="black" d="M2419.88,-363.6C2484.65,-352.44 2564.74,-336.41 2574.7,-324 2584.71,-311.52 2585.26,-300.02 2574.7,-288 2572.44,-285.43 2426.9,-267.01 2310.08,-252.6"/>
<polygon fill="black" stroke="black" points="2310.73,-249.16 2300.38,-251.41 2309.87,-256.1 2310.73,-249.16"/>
</g>
<!-- [root] module.simxstudio.var.namespace (expand)&#45;&gt;[root] kubernetes_namespace.simxstudio (expand) -->
<g id="edge36" class="edge">
<title>[root] module.simxstudio.var.namespace (expand)&#45;&gt;[root] kubernetes_namespace.simxstudio (expand)</title>
<path fill="none" stroke="black" d="M2444.7,-143.7C2444.7,-136.41 2444.7,-127.73 2444.7,-119.54"/>
<polygon fill="black" stroke="black" points="2448.2,-119.62 2444.7,-109.62 2441.2,-119.62 2448.2,-119.62"/>
</g>
<!-- [root] module.simxstudio (expand) -->
<g id="node21" class="node">
<title>[root] module.simxstudio (expand)</title>
<ellipse fill="none" stroke="black" cx="1592.7" cy="-90" rx="141.43" ry="18"/>
<text xml:space="preserve" text-anchor="middle" x="1592.7" y="-84.95" font-family="Times,serif" font-size="14.00">[root] module.simxstudio (expand)</text>
</g>
<!-- [root] module.simxstudio.var.namespace (expand)&#45;&gt;[root] module.simxstudio (expand) -->
<g id="edge37" class="edge">
<title>[root] module.simxstudio.var.namespace (expand)&#45;&gt;[root] module.simxstudio (expand)</title>
<path fill="none" stroke="black" d="M2301.13,-149.2C2138.46,-135.84 1875.78,-114.26 1720.11,-101.47"/>
<polygon fill="black" stroke="black" points="1720.85,-98.02 1710.59,-100.69 1720.27,-104.99 1720.85,-98.02"/>
</g>
<!-- [root] module.simxstudio.var.apps (expand)&#45;&gt;[root] var.apps -->
<g id="edge30" class="edge">
<title>[root] module.simxstudio.var.apps (expand)&#45;&gt;[root] var.apps</title>
<path fill="none" stroke="black" d="M2835.7,-143.7C2835.7,-136.41 2835.7,-127.73 2835.7,-119.54"/>
<polygon fill="black" stroke="black" points="2839.2,-119.62 2835.7,-109.62 2832.2,-119.62 2839.2,-119.62"/>
</g>
<!-- [root] module.simxstudio.var.apps (expand)&#45;&gt;[root] module.simxstudio (expand) -->
<g id="edge29" class="edge">
<title>[root] module.simxstudio.var.apps (expand)&#45;&gt;[root] module.simxstudio (expand)</title>
<path fill="none" stroke="black" d="M2712.71,-148.85C2692.66,-147.08 2672.11,-145.39 2652.7,-144 2326.44,-120.7 1942.95,-104.23 1738.49,-96.32"/>
<polygon fill="black" stroke="black" points="1738.73,-92.83 1728.6,-95.94 1738.46,-99.82 1738.73,-92.83"/>
</g>
<!-- [root] module.simxstudio.var.mysql_database (expand)&#45;&gt;[root] module.simxstudio (expand) -->
<g id="edge31" class="edge">
<title>[root] module.simxstudio.var.mysql_database (expand)&#45;&gt;[root] module.simxstudio (expand)</title>
<path fill="none" stroke="black" d="M1592.7,-143.7C1592.7,-136.41 1592.7,-127.73 1592.7,-119.54"/>
<polygon fill="black" stroke="black" points="1596.2,-119.62 1592.7,-109.62 1589.2,-119.62 1596.2,-119.62"/>
</g>
<!-- [root] module.simxstudio.var.mysql_password (expand)&#45;&gt;[root] module.simxstudio (expand) -->
<g id="edge32" class="edge">
<title>[root] module.simxstudio.var.mysql_password (expand)&#45;&gt;[root] module.simxstudio (expand)</title>
<path fill="none" stroke="black" d="M871.11,-148.73C1039.47,-135.26 1306.72,-113.88 1464.39,-101.26"/>
<polygon fill="black" stroke="black" points="1464.35,-104.78 1474.04,-100.49 1463.79,-97.8 1464.35,-104.78"/>
</g>
<!-- [root] module.simxstudio.var.mysql_port (expand)&#45;&gt;[root] module.simxstudio (expand) -->
<g id="edge33" class="edge">
<title>[root] module.simxstudio.var.mysql_port (expand)&#45;&gt;[root] module.simxstudio (expand)</title>
<path fill="none" stroke="black" d="M1932.77,-145.72C1860.6,-134.11 1761.71,-118.2 1689.16,-106.52"/>
<polygon fill="black" stroke="black" points="1690.13,-103.13 1679.7,-105 1689.02,-110.05 1690.13,-103.13"/>
</g>
<!-- [root] module.simxstudio.var.mysql_user (expand)&#45;&gt;[root] module.simxstudio (expand) -->
<g id="edge35" class="edge">
<title>[root] module.simxstudio.var.mysql_user (expand)&#45;&gt;[root] module.simxstudio (expand)</title>
<path fill="none" stroke="black" d="M1251.84,-145.72C1324.29,-134.09 1423.63,-118.14 1496.37,-106.47"/>
<polygon fill="black" stroke="black" points="1496.54,-109.98 1505.86,-104.94 1495.43,-103.07 1496.54,-109.98"/>
</g>
<!-- [root] module.simxstudio.var.mysql_root_password (expand)&#45;&gt;[root] module.simxstudio (expand) -->
<g id="edge34" class="edge">
<title>[root] module.simxstudio.var.mysql_root_password (expand)&#45;&gt;[root] module.simxstudio (expand)</title>
<path fill="none" stroke="black" d="M409.44,-148.95C435.96,-147.2 463.07,-145.49 488.7,-144 832.93,-123.99 1237.85,-105.96 1448.66,-96.99"/>
<polygon fill="black" stroke="black" points="1448.74,-100.49 1458.59,-96.56 1448.45,-93.49 1448.74,-100.49"/>
</g>
<!-- [root] provider[&quot;registry.terraform.io/hashicorp/helm&quot;] (close) -->
<g id="node22" class="node">
<title>[root] provider[&quot;registry.terraform.io/hashicorp/helm&quot;] (close)</title>
<ellipse fill="none" stroke="black" cx="2732.7" cy="-378" rx="242.77" ry="18"/>
<text xml:space="preserve" text-anchor="middle" x="2732.7" y="-372.95" font-family="Times,serif" font-size="14.00">[root] provider[&quot;registry.terraform.io/hashicorp/helm&quot;] (close)</text>
</g>
<!-- [root] provider[&quot;registry.terraform.io/hashicorp/helm&quot;] (close)&#45;&gt;[root] module.simxstudio.helm_release.redis (expand) -->
<g id="edge38" class="edge">
<title>[root] provider[&quot;registry.terraform.io/hashicorp/helm&quot;] (close)&#45;&gt;[root] module.simxstudio.helm_release.redis (expand)</title>
<path fill="none" stroke="black" d="M2733.19,-359.7C2733.4,-352.41 2733.65,-343.73 2733.88,-335.54"/>
<polygon fill="black" stroke="black" points="2737.38,-335.71 2734.16,-325.62 2730.38,-335.51 2737.38,-335.71"/>
</g>
<!-- [root] provider[&quot;registry.terraform.io/hashicorp/kubernetes&quot;] (close) -->
<g id="node23" class="node">
<title>[root] provider[&quot;registry.terraform.io/hashicorp/kubernetes&quot;] (close)</title>
<ellipse fill="none" stroke="black" cx="1915.7" cy="-378" rx="263.75" ry="18"/>
<text xml:space="preserve" text-anchor="middle" x="1915.7" y="-372.95" font-family="Times,serif" font-size="14.00">[root] provider[&quot;registry.terraform.io/hashicorp/kubernetes&quot;] (close)</text>
</g>
<!-- [root] provider[&quot;registry.terraform.io/hashicorp/kubernetes&quot;] (close)&#45;&gt;[root] module.simxstudio.kubernetes_deployment.apps[&quot;admin&quot;] -->
<g id="edge39" class="edge">
<title>[root] provider[&quot;registry.terraform.io/hashicorp/kubernetes&quot;] (close)&#45;&gt;[root] module.simxstudio.kubernetes_deployment.apps[&quot;admin&quot;]</title>
<path fill="none" stroke="black" d="M1964.62,-359.88C1991.9,-350.33 2026.11,-338.36 2055.07,-328.22"/>
<polygon fill="black" stroke="black" points="2056.18,-331.54 2064.46,-324.93 2053.86,-324.93 2056.18,-331.54"/>
</g>
<!-- [root] provider[&quot;registry.terraform.io/hashicorp/kubernetes&quot;] (close)&#45;&gt;[root] module.simxstudio.kubernetes_deployment.apps[&quot;api&quot;] -->
<g id="edge40" class="edge">
<title>[root] provider[&quot;registry.terraform.io/hashicorp/kubernetes&quot;] (close)&#45;&gt;[root] module.simxstudio.kubernetes_deployment.apps[&quot;api&quot;]</title>
<path fill="none" stroke="black" d="M1872.15,-359.88C1848.2,-350.46 1818.24,-338.67 1792.68,-328.62"/>
<polygon fill="black" stroke="black" points="1794.02,-325.39 1783.44,-324.99 1791.46,-331.9 1794.02,-325.39"/>
</g>
<!-- [root] provider[&quot;registry.terraform.io/hashicorp/kubernetes&quot;] (close)&#45;&gt;[root] module.simxstudio.kubernetes_deployment.mysql (expand) -->
<g id="edge41" class="edge">
<title>[root] provider[&quot;registry.terraform.io/hashicorp/kubernetes&quot;] (close)&#45;&gt;[root] module.simxstudio.kubernetes_deployment.mysql (expand)</title>
<path fill="none" stroke="black" d="M1729.66,-364.93C1668.05,-357.22 1609.59,-344.6 1587.7,-324 1571.56,-308.81 1567.08,-283.63 1566.35,-263.92"/>
<polygon fill="black" stroke="black" points="1569.85,-263.99 1566.31,-254.01 1562.85,-264.02 1569.85,-263.99"/>
</g>
<!-- [root] provider[&quot;registry.terraform.io/hashicorp/kubernetes&quot;] (close)&#45;&gt;[root] module.simxstudio.kubernetes_ingress_v1.ingress (expand) -->
<g id="edge42" class="edge">
<title>[root] provider[&quot;registry.terraform.io/hashicorp/kubernetes&quot;] (close)&#45;&gt;[root] module.simxstudio.kubernetes_ingress_v1.ingress (expand)</title>
<path fill="none" stroke="black" d="M2029.03,-361.29C2104.43,-350.84 2203.92,-337.05 2283.76,-325.98"/>
<polygon fill="black" stroke="black" points="2283.96,-329.49 2293.39,-324.65 2283,-322.55 2283.96,-329.49"/>
</g>
<!-- [root] provider[&quot;registry.terraform.io/hashicorp/kubernetes&quot;] (close)&#45;&gt;[root] module.simxstudio.kubernetes_service.mysql (expand) -->
<g id="edge43" class="edge">
<title>[root] provider[&quot;registry.terraform.io/hashicorp/kubernetes&quot;] (close)&#45;&gt;[root] module.simxstudio.kubernetes_service.mysql (expand)</title>
<path fill="none" stroke="black" d="M1920.89,-359.5C1927.81,-339.25 1942.02,-306.34 1965.7,-288 1983.88,-273.92 2005.48,-263.56 2027.64,-255.96"/>
<polygon fill="black" stroke="black" points="2028.67,-259.3 2037.12,-252.9 2026.53,-252.64 2028.67,-259.3"/>
</g>
<!-- [root] root -->
<g id="node24" class="node">
<title>[root] root</title>
<ellipse fill="none" stroke="black" cx="2335.7" cy="-450" rx="49.3" ry="18"/>
<text xml:space="preserve" text-anchor="middle" x="2335.7" y="-444.95" font-family="Times,serif" font-size="14.00">[root] root</text>
</g>
<!-- [root] root&#45;&gt;[root] module.simxstudio (close) -->
<g id="edge44" class="edge">
<title>[root] root&#45;&gt;[root] module.simxstudio (close)</title>
<path fill="none" stroke="black" d="M2335.7,-431.7C2335.7,-424.41 2335.7,-415.73 2335.7,-407.54"/>
<polygon fill="black" stroke="black" points="2339.2,-407.62 2335.7,-397.62 2332.2,-407.62 2339.2,-407.62"/>
</g>
<!-- [root] root&#45;&gt;[root] provider[&quot;registry.terraform.io/hashicorp/helm&quot;] (close) -->
<g id="edge45" class="edge">
<title>[root] root&#45;&gt;[root] provider[&quot;registry.terraform.io/hashicorp/helm&quot;] (close)</title>
<path fill="none" stroke="black" d="M2379.32,-441.31C2439.24,-430.74 2548.84,-411.42 2630.15,-397.08"/>
<polygon fill="black" stroke="black" points="2630.7,-400.54 2639.94,-395.35 2629.49,-393.64 2630.7,-400.54"/>
</g>
<!-- [root] root&#45;&gt;[root] provider[&quot;registry.terraform.io/hashicorp/kubernetes&quot;] (close) -->
<g id="edge46" class="edge">
<title>[root] root&#45;&gt;[root] provider[&quot;registry.terraform.io/hashicorp/kubernetes&quot;] (close)</title>
<path fill="none" stroke="black" d="M2291.54,-441.64C2228.59,-431.15 2111.05,-411.56 2024.11,-397.07"/>
<polygon fill="black" stroke="black" points="2024.79,-393.63 2014.35,-395.44 2023.64,-400.54 2024.79,-393.63"/>
</g>
</g>
</svg>
